Coordinates
version=1
nRows=16
nColumns=40
inDegrees=yes

Units are S.I. units (second, meters, Newtons, ...)
Angles are in degrees.

endheader
time	pelvis_tilt	pelvis_list	pelvis_rotation	pelvis_tx	pelvis_ty	pelvis_tz	hip_flexion_r	hip_adduction_r	hip_rotation_r	knee_angle_r	knee_angle_r_beta	ankle_angle_r	subtalar_angle_r	mtp_angle_r	hip_flexion_l	hip_adduction_l	hip_rotation_l	knee_angle_l	knee_angle_l_beta	ankle_angle_l	subtalar_angle_l	mtp_angle_l	lumbar_extension	lumbar_bending	lumbar_rotation	arm_flex_r	arm_add_r	arm_rot_r	elbow_flex_r	pro_sup_r	wrist_flex_r	wrist_dev_r	arm_flex_l	arm_add_l	arm_rot_l	elbow_flex_l	pro_sup_l	wrist_flex_l	wrist_dev_l
     44.38142857	     -4.00498774	     -4.95190775	      7.04352468	      1.07953599	      0.93164716	      0.48065297	      9.57552054	      3.08308187	    -15.67984124	     14.43849712	     14.43849712	     11.02728527	     -1.98147343	     -4.34284001	     37.36079221	    -10.34058140	      2.78187608	     51.01565247	     51.01565247	      6.20224817	    -18.67717062	     15.54971567	    -11.51944703	      5.26538538	      2.70166999	     25.66127662	    -14.94886382	      2.05439135	     62.65831254	     44.64462213	      0.00000000	      0.00000000	     -0.60839686	     -6.22400327	     -5.28871541	     23.10757554	     46.59690726	      0.00000000	      0.00000000
     44.39285714	     -4.19344852	     -5.00174035	      7.23921603	      1.07849739	      0.93166321	      0.48088716	      8.71130879	      3.29087127	    -16.09107321	     13.49072969	     13.49072969	     11.17053640	     -1.18651722	     -4.42070752	     37.62034561	     -9.89539637	      2.71145458	     47.15559548	     47.15559548	      6.25853323	    -18.43424104	     15.39611659	    -11.45963017	      5.34901371	      2.49962846	     27.43599673	    -14.71921795	      2.21416304	     65.82713483	     44.55033338	      0.00000000	      0.00000000	     -1.82925789	     -6.17796849	     -5.02082397	     22.25580844	     46.51417816	      0.00000000	      0.00000000
     44.40428571	     -4.47566360	     -5.03793110	      7.39391345	      1.07750033	      0.93131858	      0.48100851	      7.98788454	      3.42138104	    -16.71727453	     12.64606209	     12.64606209	     11.35589482	     -0.01282505	     -4.78082210	     37.79539102	     -9.46442924	      2.56262613	     43.04971013	     43.04971013	      5.70129976	    -17.94998033	     13.60531547	    -11.38296324	      5.40629339	      3.20616500	     28.06226961	    -15.65764786	      2.64020458	     71.04399577	     44.40664110	      0.00000000	      0.00000000	     -2.71618125	     -6.16616822	     -4.15074719	     21.90989006	     46.28939989	      0.00000000	      0.00000000
     44.41571429	     -4.77299626	     -5.02590274	      7.49683491	      1.07658824	      0.93087916	      0.48110772	      7.31586158	      3.56538117	    -16.78623190	     11.86018458	     11.86018458	     11.54698290	      0.35079275	     -4.76265035	     37.88865434	     -8.95428145	      2.53025528	     38.97586811	     38.97586811	      5.89381501	    -17.02214803	     13.69615642	    -11.15268846	      5.36651878	      3.19108167	     29.96747608	    -15.25583731	      2.45118438	     72.95966303	     44.36645268	      0.00000000	      0.00000000	     -3.91091469	     -6.15871190	     -3.95912728	     21.44202090	     46.22139494	      0.00000000	      0.00000000
     44.42714286	     -4.94622774	     -5.19417636	      7.65121549	      1.07594371	      0.93036194	      0.48103505	      6.39045570	      3.91345392	    -17.24958010	     10.84057534	     10.84057534	     11.67571589	      1.31216251	     -4.79932473	     37.79789981	     -8.62632260	      2.65188597	     34.90600534	     34.90600534	      6.05933997	    -15.62202656	     13.08836102	    -11.10545306	      5.59481884	      2.94596863	     31.65766318	    -14.81237458	      2.46502746	     76.17828431	     44.28260392	      0.00000000	      0.00000000	     -5.29684847	     -6.10415601	     -3.62563672	     21.35229220	     46.10834775	      0.00000000	      0.00000000
     44.43857143	     -5.35742204	     -5.35176318	      7.71506749	      1.07523979	      0.92924975	      0.48097221	      5.94896362	      4.17723746	    -17.46241026	     10.25313422	     10.25313422	     11.94771092	      1.77095471	     -4.88979102	     37.92980407	     -8.33259142	      2.65383590	     31.00080910	     31.00080910	      6.38327105	    -13.78201139	     12.99466163	    -10.66707901	      5.72540903	      3.21242254	     33.36847732	    -14.76347602	      2.36967921	     78.08663771	     44.23733663	      0.00000000	      0.00000000	     -6.39548885	     -6.02681015	     -3.49602559	     21.27970918	     46.05028843	      0.00000000	      0.00000000
     44.45000000	     -5.41479684	     -5.57491679	      7.82077435	      1.07519127	      0.92844367	      0.48072540	      4.79193179	      4.57617687	    -18.29092696	      9.11773130	      9.11773130	     12.16371228	      3.63930210	     -4.96106616	     37.59233702	     -8.26500739	      2.34716023	     27.19198383	     27.19198383	      6.21825323	    -11.35944866	     10.94348170	    -10.75209101	      6.04820862	      3.54104771	     34.02121279	    -15.12715754	      2.62472654	     83.78717628	     44.09041402	      0.00000000	      0.00000000	     -8.14254316	     -6.20452313	     -2.58933040	     22.86888983	     45.77571544	      0.00000000	      0.00000000
     44.46142857	     -5.62933510	     -5.65856560	      7.85270615	      1.07502100	      0.92737348	      0.48045207	      4.11745960	      4.78494307	    -18.36599967	      8.58224822	      8.58224822	     12.47762027	      4.05119356	     -4.99646848	     37.29744976	     -7.99264757	      2.11275578	     23.55326036	     23.55326036	      6.46204854	     -9.22896238	     10.96717129	    -10.49523925	      6.12306922	      3.57569736	     35.64554715	    -14.69659841	      2.51621664	     85.81791558	     44.04721580	      0.00000000	      0.00000000	     -9.32014538	     -6.18709274	     -2.25567227	     22.80406773	     45.67892291	      0.00000000	      0.00000000
     44.47285714	     -5.71571074	     -5.93580006	      7.90806629	      1.07523721	      0.92611363	      0.48007796	      3.20828022	      5.20966244	    -18.87864963	      7.88565194	      7.88565194	     12.94930472	      5.30936389	     -4.56540488	     36.99560902	     -8.00121341	      1.56940857	     20.41918132	     20.41918132	      6.20647000	     -6.82668848	      9.17541254	    -10.42289965	      6.49842853	      4.23701973	     36.41125423	    -15.04159601	      2.10872783	     90.31426856	     44.29876150	      0.00000000	      0.00000000	    -11.46396897	     -7.65048626	      7.62282250	     25.96270284	     43.92874235	      0.00000000	      0.00000000
     44.48428571	     -5.84296894	     -6.10823116	      7.93827546	      1.07556194	      0.92480721	      0.47956512	      2.41506155	      5.50991663	    -19.04635643	      7.34357608	      7.34357608	     13.26731201	      5.92801655	     -4.60965597	     36.73752526	     -7.87959482	      0.93691303	     17.80978964	     17.80978964	      6.56588377	     -4.71705726	      9.57785043	    -10.20936121	      6.70226251	      4.12081611	     37.92057378	    -14.51098980	      2.20289790	     92.76510681	     44.24183989	      0.00000000	      0.00000000	    -12.74176868	     -7.58637313	      7.67411848	     26.15776422	     43.92444652	      0.00000000	      0.00000000
     44.49571429	     -5.93752325	     -6.30180289	      7.94869167	      1.07609681	      0.92338933	      0.47891656	      1.64155572	      5.79895130	    -19.27944572	      6.94242079	      6.94242079	     13.67787484	      6.63543033	     -4.55342030	     36.53592397	     -7.81884342	     -0.02113532	     15.83478210	     15.83478210	      6.83538012	     -2.84914877	      9.86605135	    -10.00204923	      6.95261304	      4.12143902	     39.16800945	    -14.22334525	      2.34982283	     95.58936710	     44.17665072	      0.00000000	      0.00000000	    -14.06572930	     -7.60828667	      7.76377173	     26.87022719	     43.91495785	      0.00000000	      0.00000000
     44.50714286	     -6.03177043	     -6.41033880	      7.96148970	      1.07677725	      0.92195793	      0.47807548	      0.97724626	      5.95173619	    -19.31175062	      6.80562016	      6.80562016	     14.16348468	      6.96594184	     -4.55084435	     36.20759539	     -7.63068446	     -0.94566663	     14.14849712	     14.14849712	      6.87145166	     -1.65428033	     10.09461148	     -9.77518279	      7.08592757	      4.08761910	     40.40513854	    -13.74585115	      2.44880617	     97.70037539	     44.12524525	      0.00000000	      0.00000000	    -15.17460781	     -7.56075982	      7.89999596	     27.16793787	     43.88925269	      0.00000000	      0.00000000
     44.51857143	     -6.11509241	     -6.58199312	      7.91351537	      1.07769215	      0.92041147	      0.47716292	      0.34715702	      6.14175143	    -19.37496279	      6.76909495	      6.76909495	     14.66008150	      7.38025982	     -4.46735368	     36.01351904	     -7.55577650	     -2.00671711	     13.22409823	     13.22409823	      6.83581932	     -0.95914269	     10.07357134	     -9.50442243	      7.27336410	      4.03118255	     41.60267819	    -13.38109715	      2.56307906	    100.06529939	     44.06648122	      0.00000000	      0.00000000	    -16.34736198	     -7.51773262	      8.08797053	     27.64467052	     43.85325345	      0.00000000	      0.00000000
     44.53000000	     -6.18729256	     -6.71031496	      7.85573237	      1.07887565	      0.91882289	      0.47607837	     -0.23459954	      6.23021982	    -19.53183872	      6.93546974	      6.93546974	     15.42644780	      7.95786631	     -3.79546781	     35.84269697	     -7.47483077	     -3.22336230	     12.84686524	     12.84686524	      6.40796881	     -0.69201285	      9.16711427	     -9.23834403	      7.38900673	      4.39422428	     42.28533593	    -13.60934697	      2.57054803	    103.12546450	     44.02720773	      0.00000000	      0.00000000	    -17.66477110	     -7.81133119	      8.97303961	     29.48553414	     43.75228654	      0.00000000	      0.00000000
     44.54142857	     -6.20304320	     -6.81767269	      7.75676081	      1.08025688	      0.91725278	      0.47482141	     -0.80176191	      6.26056085	    -19.46141423	      7.29336238	      7.29336238	     16.32754590	      8.21996197	     -2.91669526	     35.43944074	     -7.35814390	     -4.05862934	     12.54129562	     12.54129562	      5.34390302	     -1.34192949	      7.35247991	     -8.93347237	      7.54429746	      4.45842778	     43.12736374	    -13.24323668	      2.51279231	    105.10988395	     44.16302268	      0.00000000	      0.00000000	    -18.76875825	     -8.43770392	     12.83246709	     30.59400121	     43.49416225	      0.00000000	      0.00000000
     44.55285714	     -6.25398332	     -6.84238447	      7.64623916	      1.08177449	      0.91568543	      0.47338703	     -1.32680655	      6.17724049	    -19.30369734	      7.67384828	      7.67384828	     16.88387807	      8.26049874	     -2.99615539	     35.17372723	     -7.21505776	     -4.91165162	     12.84047246	     12.84047246	      4.77595763	     -2.17942356	      7.14393943	     -8.59669182	      7.57414462	      4.33635210	     43.96291363	    -12.88343896	      2.65349692	    106.82473758	     44.12693806	      0.00000000	      0.00000000	    -19.58787349	     -8.33039540	     13.03781690	     30.71747028	     43.49012498	      0.00000000	      0.00000000
